<mxfile host="app.diagrams.net" modified="2022-05-14T08:40:05.735Z" agent="5.0 (Windows NT 10.0; Win64; x64) AppleWebKit/537.36 (KHTML, like Gecko) Chrome/101.0.4951.54 Safari/537.36 Edg/101.0.1210.39" etag="usoAKavvsjgpjb7Sn34t" version="17.5.0" type="github">
  <diagram id="Oqzc8Qia1VLKV0KFHlVB" name="Page-1">
    <mxGraphModel dx="1038" dy="571" grid="1" gridSize="10" guides="1" tooltips="1" connect="1" arrows="1" fold="1" page="1" pageScale="1" pageWidth="827" pageHeight="1169" math="0" shadow="0">
      <root>
        <mxCell id="0" />
        <mxCell id="1" parent="0" />
        <mxCell id="X29gdmM6xMOIDkGXSHHm-1" value="Right Arm（右手持剑）" style="rounded=0;whiteSpace=wrap;html=1;" vertex="1" parent="1">
          <mxGeometry x="360" y="240" width="140" height="60" as="geometry" />
        </mxCell>
        <mxCell id="X29gdmM6xMOIDkGXSHHm-2" value="Left Arm（左手持剑）" style="rounded=0;whiteSpace=wrap;html=1;" vertex="1" parent="1">
          <mxGeometry x="360" y="320" width="140" height="60" as="geometry" />
        </mxCell>
        <mxCell id="X29gdmM6xMOIDkGXSHHm-8" value="" style="edgeStyle=orthogonalEdgeStyle;rounded=0;orthogonalLoop=1;jettySize=auto;html=1;" edge="1" parent="1" source="X29gdmM6xMOIDkGXSHHm-3" target="X29gdmM6xMOIDkGXSHHm-2">
          <mxGeometry relative="1" as="geometry" />
        </mxCell>
        <mxCell id="X29gdmM6xMOIDkGXSHHm-3" value="Both Arms（双手持剑）" style="rounded=0;whiteSpace=wrap;html=1;" vertex="1" parent="1">
          <mxGeometry x="360" y="400" width="140" height="60" as="geometry" />
        </mxCell>
        <mxCell id="X29gdmM6xMOIDkGXSHHm-4" value="Override（覆盖层级）" style="rounded=0;whiteSpace=wrap;html=1;" vertex="1" parent="1">
          <mxGeometry x="360" y="480" width="140" height="60" as="geometry" />
        </mxCell>
        <mxCell id="X29gdmM6xMOIDkGXSHHm-5" value="Base Layer（基层）" style="rounded=0;whiteSpace=wrap;html=1;" vertex="1" parent="1">
          <mxGeometry x="360" y="160" width="140" height="60" as="geometry" />
        </mxCell>
        <mxCell id="X29gdmM6xMOIDkGXSHHm-6" value="" style="endArrow=classic;html=1;rounded=0;entryX=0.5;entryY=1;entryDx=0;entryDy=0;exitX=0.5;exitY=0;exitDx=0;exitDy=0;" edge="1" parent="1" source="X29gdmM6xMOIDkGXSHHm-4" target="X29gdmM6xMOIDkGXSHHm-3">
          <mxGeometry width="50" height="50" relative="1" as="geometry">
            <mxPoint x="390" y="410" as="sourcePoint" />
            <mxPoint x="440" y="360" as="targetPoint" />
          </mxGeometry>
        </mxCell>
        <mxCell id="X29gdmM6xMOIDkGXSHHm-7" value="" style="endArrow=classic;html=1;rounded=0;entryX=0.5;entryY=1;entryDx=0;entryDy=0;exitX=0.5;exitY=0;exitDx=0;exitDy=0;" edge="1" parent="1" source="X29gdmM6xMOIDkGXSHHm-3" target="X29gdmM6xMOIDkGXSHHm-2">
          <mxGeometry width="50" height="50" relative="1" as="geometry">
            <mxPoint x="420" y="440" as="sourcePoint" />
            <mxPoint x="430" y="510" as="targetPoint" />
          </mxGeometry>
        </mxCell>
        <mxCell id="X29gdmM6xMOIDkGXSHHm-10" value="" style="endArrow=classic;html=1;rounded=0;entryX=0.5;entryY=1;entryDx=0;entryDy=0;exitX=0.5;exitY=0;exitDx=0;exitDy=0;" edge="1" parent="1" source="X29gdmM6xMOIDkGXSHHm-2" target="X29gdmM6xMOIDkGXSHHm-1">
          <mxGeometry width="50" height="50" relative="1" as="geometry">
            <mxPoint x="430" y="450" as="sourcePoint" />
            <mxPoint x="430" y="410" as="targetPoint" />
          </mxGeometry>
        </mxCell>
        <mxCell id="X29gdmM6xMOIDkGXSHHm-11" value="" style="endArrow=classic;html=1;rounded=0;entryX=0.5;entryY=1;entryDx=0;entryDy=0;exitX=0.5;exitY=0;exitDx=0;exitDy=0;" edge="1" parent="1" source="X29gdmM6xMOIDkGXSHHm-1" target="X29gdmM6xMOIDkGXSHHm-5">
          <mxGeometry width="50" height="50" relative="1" as="geometry">
            <mxPoint x="430" y="350" as="sourcePoint" />
            <mxPoint x="430" y="310" as="targetPoint" />
          </mxGeometry>
        </mxCell>
      </root>
    </mxGraphModel>
  </diagram>
</mxfile>
